<svg xmlns="http://www.w3.org/2000/svg" xmlns:xlink="http://www.w3.org/1999/xlink" width="30" height="30" viewBox="0 0 30 30">
  <defs>
    <clipPath id="clip-gmail">
      <rect width="30" height="30"/>
    </clipPath>
  </defs>
  <g id="gmail" clip-path="url(#clip-gmail)">
    <g id="Group_10" data-name="Group 10" transform="translate(2 2.001)">
      <path id="Subtraction_1" data-name="Subtraction 1" d="M13.394,26.789A13.394,13.394,0,0,1,3.923,3.923,13.394,13.394,0,0,1,22.866,22.866,13.307,13.307,0,0,1,13.394,26.789ZM10.131,8.466H10.1l-.048,0h0c-.05,0-.1.006-.15.011a5.3,5.3,0,0,0-3.671,1.642,5.365,5.365,0,0,0-1.569,3.7c0,.053,0,.106,0,.16s0,.078,0,.114a5.531,5.531,0,0,0,3.724,5.113,5.747,5.747,0,0,0,1.835.3,5.364,5.364,0,0,0,3.626-1.346,4.536,4.536,0,0,0,.494-.538A5.778,5.778,0,0,0,15.483,13.9c0-.217-.008-.45-.024-.69-.818-.007-1.742-.011-2.823-.011q-1.1,0-2.2,0h-.26c0,.546,0,1.126,0,1.88.579.016,1.168.019,1.738.023h.033c.457,0,.929.005,1.393.015-.028.095-.056.177-.084.254a2.97,2.97,0,0,1-1.709,1.836,3.169,3.169,0,0,1-1.284.265,3.532,3.532,0,0,1-1.2-.212l-.008,0-.006,0-.011,0-.006,0a3.523,3.523,0,0,1-1.548-1.113l0,0-.009-.013-.007-.008-.005-.006a.015.015,0,0,0,0-.006,3.107,3.107,0,0,1-.513-1,3.05,3.05,0,0,1-.116-.38,3.471,3.471,0,0,1,.4-2.5A3.352,3.352,0,0,1,9.2,10.647a2.725,2.725,0,0,1,.9-.15,4.535,4.535,0,0,1,2.291.745l.073.044c.507-.473.973-.974,1.4-1.445a6.282,6.282,0,0,0-.6-.445A5.425,5.425,0,0,0,10.3,8.463c-.051,0-.1,0-.153,0ZM20.455,11.62H18.887c0,.465-.011,1.017-.013,1.576-.505.005-1.016.008-1.512.01H17.3v1.572h.184c.429,0,.915,0,1.394.01l0,.715c0,.287,0,.574.006.862h1.571l0-.452c0-.349,0-.744.009-1.128l.568,0,1.009,0V13.207h-.253c-.472,0-.9,0-1.324-.009q0-.383-.006-.766v-.018Q20.458,12.016,20.455,11.62Z" transform="translate(0 -0.001)" fill="#969696" stroke="rgba(0,0,0,0)" stroke-miterlimit="10" stroke-width="1"/>
    </g>
  </g>
</svg>
