<svg xmlns="http://www.w3.org/2000/svg" xmlns:xlink="http://www.w3.org/1999/xlink" width="30" height="30" viewBox="0 0 30 30">
  <defs>
    <clipPath id="clip-line">
      <rect width="30" height="30"/>
    </clipPath>
  </defs>
  <g id="line" clip-path="url(#clip-line)">
    <path id="Path_1" data-name="Path 1" d="M23.836,14.317A15.593,15.593,0,0,0,14,11a15.593,15.593,0,0,0-9.836,3.317A10.534,10.534,0,0,0,0,22.517a10.463,10.463,0,0,0,3.749,7.848,15.132,15.132,0,0,0,8.232,3.548v3.055a.82.82,0,0,0,.82.82c1.419,0,5.26-1.741,8.5-4.24a20.831,20.831,0,0,0,4.614-4.764A11.167,11.167,0,0,0,28,22.517,10.534,10.534,0,0,0,23.836,14.317ZM9,25.975H6.214a.665.665,0,0,1-.747-.606V19.657c0-.358.329-.6.817-.6s.817.24.817.6v4.824H9c.346,0,.589.307.589.747S9.34,25.975,9,25.975Zm2.628-.606c0,.351-.344.606-.817.606s-.817-.249-.817-.606V19.657c0-.358.328-.6.817-.6s.817.24.817.6Zm5.589,0c0,.351-.344.606-.817.606a.925.925,0,0,1-.875-.488L14.1,22.818v2.55c0,.351-.344.606-.817.606s-.817-.249-.817-.606v-5.7c0-.363.329-.606.817-.606.529,0,.769.165,1.07.738l1.232,2.381V19.657c0-.358.328-.6.817-.6s.817.24.817.6Zm3.559-3.55a.645.645,0,0,1,.606.7.638.638,0,0,1-.606.685H19.686v1.274h2.24c.352,0,.606.318.606.756a.659.659,0,0,1-.606.738H18.8a.665.665,0,0,1-.747-.606v-5.7a.665.665,0,0,1,.747-.606h3.128a.659.659,0,0,1,.606.738c0,.438-.255.756-.606.756h-2.24v1.265Z" transform="translate(1 -9)" fill="#969696"/>
  </g>
</svg>
