<svg xmlns="http://www.w3.org/2000/svg" xmlns:xlink="http://www.w3.org/1999/xlink" width="30" height="30" viewBox="0 0 30 30">
  <defs>
    <clipPath id="clip-phone">
      <rect width="30" height="30"/>
    </clipPath>
  </defs>
  <g id="phone" clip-path="url(#clip-phone)">
    <path id="Path_6" data-name="Path 6" d="M1185.929,1306.657a2.449,2.449,0,0,1-2.431,2.431h-9.667a2.449,2.449,0,0,1-2.431-2.431v-21.426a2.449,2.449,0,0,1,2.431-2.431h9.667a2.449,2.449,0,0,1,2.431,2.431Zm-1.809-19.165a.627.627,0,0,0-.622-.622h-9.667a.627.627,0,0,0-.622.622V1303.6a.627.627,0,0,0,.622.622h9.667a.627.627,0,0,0,.622-.622Zm-3.957-3h-3a.283.283,0,0,0,0,.565h3a.283.283,0,0,0,0-.565Zm-1.526,20.635a1.526,1.526,0,1,0,1.526,1.526A1.52,1.52,0,0,0,1178.636,1305.131Z" transform="translate(-1163.4 -1280.8)" fill="#969696"/>
  </g>
</svg>
